# xmcd CD database file
#
# Track frame offsets:
#	150
#	21704
#	39263
#	56142
#	78049
#	101171
#	125130
#	147378
#	164989
#	182659
#	217481
#	245891
#	268734
#	284579
#	305996
#	326988
#
# Disc length: 4607 seconds
#
# Revision: 1
# Processed by: cddbd v1.5.2PL0 Copyright (c) Steve Scherf et al.
# Submitted via: jetAudio 7
#
DISCID=1811fd10
DTITLE=Hanery Amann - Instrumental
DYEAR=1900
DGENRE=Ballad
TTITLE0=Waldgeischt
TTITLE1=Alpewäse
TTITLE2=Cumulus
TTITLE3=Crossroads
TTITLE4=Own Way
TTITLE5=Indigo
TTITLE6=Delta
TTITLE7=Viktoria
TTITLE8=Ping Pong
TTITLE9=Chinees
TTITLE10=Down Town
TTITLE11=Saalbau
TTITLE12=Wölkli
TTITLE13=Primavera
TTITLE14=Tristessa
TTITLE15=Kidy Song
EXTD=
EXTT0=
EXTT1=
EXTT2=
EXTT3=
EXTT4=
EXTT5=
EXTT6=
EXTT7=
EXTT8=
EXTT9=
EXTT10=
EXTT11=
EXTT12=
EXTT13=
EXTT14=
EXTT15=
PLAYORDER=
